<mxfile host="app.diagrams.net" modified="2023-05-25T01:16:28.230Z" agent="Mozilla/5.0 (Macintosh; Intel Mac OS X 10_15_7) AppleWebKit/537.36 (KHTML, like Gecko) Chrome/113.0.0.0 Safari/537.36" etag="xiFP9z-Tc3E116CHOrGU" version="21.3.3" type="github">
  <diagram name="페이지-1" id="xW8EUUMwazLyeKuUhwcf">
    <mxGraphModel dx="1468" dy="802" grid="1" gridSize="10" guides="1" tooltips="1" connect="1" arrows="1" fold="1" page="1" pageScale="1" pageWidth="827" pageHeight="1169" math="0" shadow="0">
      <root>
        <mxCell id="0" />
        <mxCell id="1" parent="0" />
        <mxCell id="tcHRN-YQ2jnPotXfgp4l-3" value="" style="edgeStyle=orthogonalEdgeStyle;rounded=0;orthogonalLoop=1;jettySize=auto;html=1;" edge="1" parent="1" source="tcHRN-YQ2jnPotXfgp4l-1" target="tcHRN-YQ2jnPotXfgp4l-2">
          <mxGeometry relative="1" as="geometry" />
        </mxCell>
        <mxCell id="tcHRN-YQ2jnPotXfgp4l-1" value="1.&amp;nbsp;SQL Packages import" style="rounded=1;whiteSpace=wrap;html=1;" vertex="1" parent="1">
          <mxGeometry x="286" y="50" width="256" height="60" as="geometry" />
        </mxCell>
        <mxCell id="tcHRN-YQ2jnPotXfgp4l-7" value="" style="edgeStyle=orthogonalEdgeStyle;rounded=0;orthogonalLoop=1;jettySize=auto;html=1;" edge="1" parent="1" source="tcHRN-YQ2jnPotXfgp4l-2" target="tcHRN-YQ2jnPotXfgp4l-4">
          <mxGeometry relative="1" as="geometry" />
        </mxCell>
        <mxCell id="tcHRN-YQ2jnPotXfgp4l-2" value="2. JDBC Driver Load" style="rounded=1;whiteSpace=wrap;html=1;" vertex="1" parent="1">
          <mxGeometry x="286" y="150" width="256" height="60" as="geometry" />
        </mxCell>
        <mxCell id="tcHRN-YQ2jnPotXfgp4l-8" value="" style="edgeStyle=orthogonalEdgeStyle;rounded=0;orthogonalLoop=1;jettySize=auto;html=1;" edge="1" parent="1" source="tcHRN-YQ2jnPotXfgp4l-4" target="tcHRN-YQ2jnPotXfgp4l-5">
          <mxGeometry relative="1" as="geometry" />
        </mxCell>
        <mxCell id="tcHRN-YQ2jnPotXfgp4l-4" value="3. Connection Object" style="rounded=1;whiteSpace=wrap;html=1;" vertex="1" parent="1">
          <mxGeometry x="286" y="250" width="256" height="60" as="geometry" />
        </mxCell>
        <mxCell id="tcHRN-YQ2jnPotXfgp4l-9" value="" style="edgeStyle=orthogonalEdgeStyle;rounded=0;orthogonalLoop=1;jettySize=auto;html=1;" edge="1" parent="1" source="tcHRN-YQ2jnPotXfgp4l-5" target="tcHRN-YQ2jnPotXfgp4l-6">
          <mxGeometry relative="1" as="geometry" />
        </mxCell>
        <mxCell id="tcHRN-YQ2jnPotXfgp4l-5" value="4. Statement Object" style="rounded=1;whiteSpace=wrap;html=1;" vertex="1" parent="1">
          <mxGeometry x="286" y="350" width="256" height="60" as="geometry" />
        </mxCell>
        <mxCell id="tcHRN-YQ2jnPotXfgp4l-6" value="5. SQL Activate" style="rounded=1;whiteSpace=wrap;html=1;" vertex="1" parent="1">
          <mxGeometry x="286" y="450" width="256" height="60" as="geometry" />
        </mxCell>
      </root>
    </mxGraphModel>
  </diagram>
</mxfile>
